# xmcd
#
# Track frame offsets:
#	150
#	14689
#	31547
#	46605
#	63024
#	77864
#	91489
#	107557
#	120345
#	135164
#	156585
#	171915
#	182368
#	200488
#	215316
#	228883
#	242932
#	255110
#
# Disc length: 3574 seconds
#
# Revision: 1
# Processed by: cddbd v1.5.2PL0 Copyright (c) Steve Scherf et al.
# Submitted via: audiograbber 1.83.01
#
DISCID=d60df412
DTITLE=M T M - M T M 028
DYEAR=2008
DGENRE=Country
TTITLE0=Like A Radio  - Billy Yates
TTITLE1=That´s The Way I Love You  - Pete Schegel
TTITLE2=The Next 30 Years  - Tonya Kennedy
TTITLE3=Tonight´s The Right Night - Cody Mccarver
TTITLE4=How Much  - Sarah Beth Keeley
TTITLE5=Spin  - Cody Prevost
TTITLE6=Long Gone Loner - Peter and The Rowers With Joe Diffie
TTITLE7=Cowboy Caddilac  - Ray William Roldan 
TTITLE8=I´m The Man  - Ronnie Caywood
TTITLE9=Have You Ever Loved A Woman  - Razz Bailey
TTITLE10=I´m So Lonely I Could Cry  - Kristynna Bailey
TTITLE11=My Sweet Loves Arms  - Billy Chernoff
TTITLE12=One Day  - Michael J Ramplin
TTITLE13=Buggerman  - Dick Barnes
TTITLE14=Picture Of Love  - Rachel Lilliott
TTITLE15=Seeing You  - Jim Cristaldi
TTITLE16=Ready For The Sun To Shine  - John Foster
TTITLE17=In This Little Town  - Jeff Taylor
EXTD=
EXTT0=
EXTT1=
EXTT2=
EXTT3=
EXTT4=
EXTT5=
EXTT6=
EXTT7=
EXTT8=
EXTT9=
EXTT10=
EXTT11=
EXTT12=
EXTT13=
EXTT14=
EXTT15=
EXTT16=
EXTT17=
PLAYORDER=
